<svg width="150" height="150" viewBox="0 0 150 150" xmlns="http://www.w3.org/2000/svg" xmlns:xlink="http://www.w3.org/1999/xlink"><defs><clipPath id="clip-1"><rect x="0" y="0" width="150" height="150" fill="none" stroke="none" stroke-width="1" stroke-linecap="butt"></rect></clipPath><linearGradient x1="40.8265" y1="53.8295" x2="64.1586" y2="124.3728" gradientUnits="userSpaceOnUse" id="color-1"><stop offset="0" stop-color="#7bdbe8"></stop><stop offset="1" stop-color="#226a74"></stop></linearGradient><radialGradient cx="63.096" cy="87.5118" r="55.0454" gradientUnits="userSpaceOnUse" id="color-2"><stop offset="0.5" stop-color="#ffffff" stop-opacity="0"></stop><stop offset="1" stop-color="#878787" stop-opacity="0.58"></stop></radialGradient></defs><g clip-path="url(#clip-1)" id="astrorat" fill="none" fill-rule="nonzero" stroke="none" stroke-width="none" stroke-linecap="none" stroke-linejoin="miter" stroke-miterlimit="10" stroke-dasharray="" stroke-dashoffset="0" font-family="none" font-weight="none" font-size="none" text-anchor="none" style="mix-blend-mode: normal"><rect x="0" y="0" width="150" height="150" fill="none" stroke="none" stroke-width="1" stroke-linecap="butt"></rect><path d="M107.8166,66.7332c0,0 16.2856,-11.6795 16.9436,-17.6016c1.1381,-10.2429 -6.7445,-17.7661 -4.606,-30.7616c2.1878,-13.2952 13.489,-12.9955 13.6535,-12.502c0.5356,1.6067 -8.225,1.974 -8.883,13.489c-0.658,11.515 8.3895,17.1081 7.238,28.6231c-1.1515,11.515 -5.891,23.1181 -5.891,23.1181z" fill="#ffffff" stroke="none" stroke-width="1" stroke-linecap="butt"></path><path d="M75.4588,58.2516c12.9955,-7.238 43.3706,-8.8323 53.8002,1.7384c12.173,12.3375 10.1957,43.5619 10.1957,43.5619c0,0 4.2614,7.7869 1.645,9.7055c-2.4675,1.8095 -10.8622,-1.8721 -10.8622,-1.8721l-19.7401,15.7921c0,0 -1.4805,16.4501 -5.593,17.1081c-3.082,0.4931 -10.857,-10.528 -10.857,-10.528l-26.9781,-2.7965c0,0 -9.2341,7.7792 -12.831,6.0865c-2.7965,-1.316 1.645,-11.3505 1.645,-11.3505c0,0 -3.4545,-8.1592 -3.4545,-24.8396c0,-17.8265 2.8871,-31.3868 23.0301,-42.6057z" fill="#ffffff" stroke="none" stroke-width="1" stroke-linecap="butt"></path><path d="M53.3669,71.3393c3.2045,-6.8668 31.8027,-26.6786 39.0407,-25.8561c7.238,0.8225 27.165,4.199 30.3892,7.6841c3.1149,3.367 4.7481,19.3235 2.4569,21.9555c-2.2912,2.632 -24.1275,25.1391 -30.543,26.1261c-5.5874,0.8596 -36.0797,-6.386 -38.5472,-9.1825c-2.7748,-3.1448 -5.0995,-15.7921 -2.7965,-20.7271z" fill="#f2c144" stroke="none" stroke-width="1" stroke-linecap="butt"></path><path d="M108.3258,88.9281c0,0 11.1119,7.9289 12.4981,15.0329c1.316,6.7445 -3.3525,17.6372 -3.3525,17.6372l9.2481,-7.3985c0,0 3.0297,-12.8805 -0.3917,-20.1889c-4.2863,-9.156 -9.5647,-13.2266 -9.5647,-13.2266z" fill="#f2c144" stroke="none" stroke-width="1" stroke-linecap="butt"></path><path d="M43.5383,48.1421c7.6321,-1.868 22.2174,23.2976 22.2174,23.2976l-20.498,24.192c0,0 -12.29,-4.4691 -12.29,-14.5246c0,-10.0555 3.3518,-31.1983 10.5707,-32.9651z" fill="url(#color-1)" stroke="none" stroke-width="1" stroke-linecap="butt"></path><path d="M42.8912,99.0883c0,-15.9799 14.534,-28.9341 32.4627,-28.9341c17.9286,0 32.4627,12.9542 32.4627,28.9341c0,15.9799 -14.534,28.9341 -32.4627,28.9341c-17.9286,0 -32.4627,-12.9542 -32.4627,-28.9341z" fill="#595959" stroke="none" stroke-width="5" stroke-linecap="butt"></path><path d="M83.245,121.329c-11.139,5.2815 -44.6428,7.1616 -51.3946,-0.4849c-4.6952,-5.3173 11.6431,-40.5045 20.8656,-47.3483c7.0571,-5.2369 14.9012,-7.4576 14.9012,-7.4576c0,0 10.1981,-22.4579 20.533,-22.6076c10.1591,-0.1472 30.3034,34.1044 23.9698,47.0594c-6.3335,12.955 -15.4006,12.8657 -15.4006,12.8657c0,0 -4.0488,13.5042 -13.4745,17.9733z" fill="#7bdbe8" stroke="none" stroke-width="1" stroke-linecap="butt"></path><path d="M67.6172,108.4734c0,-2.7728 2.2478,-5.0207 5.0207,-5.0207c2.7728,0 5.0207,2.2478 5.0207,5.0207c0,2.7728 -2.2478,5.0207 -5.0207,5.0207c-2.7728,0 -5.0207,-2.2478 -5.0207,-5.0207z" fill="#226a74" stroke="none" stroke-width="1" stroke-linecap="butt"></path><path d="M22.9263,96.1974c0,-2.7728 2.2478,-5.0207 5.0207,-5.0207c2.7728,0 5.0207,2.2478 5.0207,5.0207c0,2.7728 -2.2478,5.0207 -5.0207,5.0207c-2.7728,0 -5.0207,-2.2478 -5.0207,-5.0207z" fill="#226a74" stroke="none" stroke-width="1" stroke-linecap="butt"></path><path d="M33.1255,115.3783c-0.5282,-1.0443 0.3449,-2.2489 1.5018,-2.0717l3.8215,0.5853c1.1654,0.1785 1.6333,1.606 0.7996,2.4397l-2.3412,2.3412c-0.6925,0.6925 -1.8593,0.5059 -2.3013,-0.368z" fill="#f5d3d9" stroke="none" stroke-width="1" stroke-linecap="butt"></path><line x1="19.5604" y1="110.1563" x2="26.264" y2="112.3909" fill="none" stroke="#226a74" stroke-width="2" stroke-linecap="round"></line><line x1="21.1573" y1="116.8599" x2="26.264" y2="116.0806" fill="none" stroke="#226a74" stroke-width="2" stroke-linecap="round"></line><path d="M89.2723,81.0628c0,0 3.7049,-27.0106 8,-26c4.2951,1.0106 14.5913,23.3456 13.4654,31c-1.0296,7 -13.8114,14.3576 -13.8114,14.3576c0,0 0.287,-7.3338 -1.2562,-11.2315c-1.3979,-3.5305 -6.3979,-8.1262 -6.3979,-8.1262z" fill="#f5d3d9" stroke="none" stroke-width="1" stroke-linecap="round"></path><circle cx="63.096" cy="87.5118" transform="" r="55.0454" fill="url(#color-2)" stroke="none" stroke-width="5" stroke-linecap="butt"></circle></g></svg>