<svg width="500" height="500" viewBox="0 0 500 500" xmlns="http://www.w3.org/2000/svg" xmlns:xlink="http://www.w3.org/1999/xlink"><defs><clipPath id="clip-1"><rect x="0" y="0" width="500" height="500" fill="none"></rect></clipPath><linearGradient x1="358.9543" y1="404.6955" x2="389.6478" y2="464.2554" gradientUnits="userSpaceOnUse" id="color-1"><stop offset="0" stop-color="#f2c144"></stop><stop offset="1" stop-color="#ffffff" stop-opacity="0"></stop></linearGradient></defs><g clip-path="url(#clip-1)" id="coffeeShop_bot" fill="none" fill-rule="nonzero" stroke="none" stroke-width="1" stroke-linecap="round" stroke-linejoin="miter" stroke-miterlimit="10" stroke-dasharray="" stroke-dashoffset="0" font-family="none" font-weight="none" font-size="none" text-anchor="none" style="mix-blend-mode: normal"><rect x="0" y="0" width="500" height="500" fill="none"></rect><path d="M121.0409,250l-33.2339,19.2723v12.8824l33.2339,20.4037v36.8002l149.3962,92.4141c6.3731,3.9423 14.4154,3.9911 20.8358,0.1263l102.5303,-61.7176v-41.1392l31.6712,-17.312v-11.1448l-31.6712,-17.2785l-112.9867,63.0992z" fill="#92cc33"></path><path d="M121.0409,250l-33.2339,19.2723l183.0313,109.3705c6.169,3.6863 13.8414,3.7794 20.0981,0.244l134.5379,-78.3014l-31.6712,-17.2785l-102.8467,57.4363c-6.2698,3.5014 -13.9355,3.3727 -20.0842,-0.3373z" fill="#c4f279"></path><polygon points="302.8126,334.1221 334.2126,354.4332 334.3262,497.669 409.8664,452.0436 409.9918,309.5964 378.0168,292.1231" id="Path 1 1 1 1" fill="url(#color-1)"></polygon><g><path d="M361.5291,277.4345c0,-3.82 5.9668,-6.9167 13.3272,-6.9167c7.3604,0 13.3272,3.0967 13.3272,6.9167c0,3.82 -5.9668,6.9167 -13.3272,6.9167c-7.3604,0 -13.3272,-3.0967 -13.3272,-6.9167z" fill="#ffffff"></path><path d="M364.397,302.7324c0,-2.9979 4.6828,-5.4283 10.4594,-5.4283c5.7765,0 10.4593,2.4303 10.4593,5.4283c0,2.9979 -4.6828,5.4283 -10.4593,5.4283c-5.7765,0 -10.4594,-2.4303 -10.4594,-5.4283z" fill="#ffffff"></path><polygon points="361.5291,277.4345 364.397,302.7324 385.3157,302.7324 388.1836,277.4345" fill="#ffffff"></polygon><path d="M363.698,296.3953l-1.2322,-10.8688c0,2.6306 6.0094,5.9415 12.6864,5.9415c7.3448,0 12.1472,-3.3109 12.1472,-6.0094l-1.2084,10.6599c0,2.7247 -5.8364,5.6634 -10.9952,5.6634c-4.674,0 -11.3978,-1.6064 -11.3978,-5.3865z" fill="#7bdbe8"></path><path d="M363.3394,277.6401c0,-3.0546 5.2096,-5.5309 11.6359,-5.5309c6.4263,0 11.6359,2.4763 11.6359,5.5309c0,3.0546 -5.2096,5.5309 -11.6359,5.5309c-6.4263,0 -11.6359,-2.4762 -11.6359,-5.5309z" fill="#a66223"></path></g><g><path d="M348.2019,292.3753c0,-3.82 5.9668,-6.9167 13.3272,-6.9167c7.3604,0 13.3272,3.0967 13.3272,6.9167c0,3.82 -5.9668,6.9167 -13.3272,6.9167c-7.3604,0 -13.3272,-3.0967 -13.3272,-6.9167z" fill="#ffffff"></path><path d="M351.0697,317.6731c0,-2.9979 4.6828,-5.4283 10.4594,-5.4283c5.7765,0 10.4594,2.4303 10.4594,5.4283c0,2.9979 -4.6828,5.4283 -10.4594,5.4283c-5.7765,0 -10.4594,-2.4303 -10.4594,-5.4283z" fill="#ffffff"></path><polygon points="348.2019,292.3753 351.0697,317.6731 371.9884,317.6731 374.8563,292.3753" fill="#ffffff"></polygon><path d="M350.3708,311.3361l-1.2322,-10.8688c0,2.6306 6.0094,5.9415 12.6864,5.9415c7.3448,0 12.1472,-3.3109 12.1472,-6.0094l-1.2085,10.6599c0,2.7247 -5.8364,5.6634 -10.9952,5.6634c-4.674,0 -11.3978,-1.6064 -11.3978,-5.3865z" fill="#7bdbe8"></path><path d="M350.0122,292.5809c0,-3.0546 5.2096,-5.5309 11.6359,-5.5309c6.4263,0 11.6359,2.4762 11.6359,5.5309c0,3.0546 -5.2096,5.5309 -11.6359,5.5309c-6.4263,0 -11.6359,-2.4763 -11.6359,-5.5309z" fill="#a66223"></path></g><g><path d="M234.1912,319.1615c0,-3.82 5.9668,-6.9167 13.3272,-6.9167c7.3604,0 13.3272,3.0967 13.3272,6.9167c0,3.82 -5.9668,6.9167 -13.3272,6.9167c-7.3604,0 -13.3272,-3.0967 -13.3272,-6.9167z" fill="#ffffff"></path><path d="M237.0591,344.4594c0,-2.9979 4.6828,-5.4283 10.4594,-5.4283c5.7765,0 10.4594,2.4303 10.4594,5.4283c0,2.9979 -4.6828,5.4283 -10.4594,5.4283c-5.7765,0 -10.4594,-2.4303 -10.4594,-5.4283z" fill="#ffffff"></path><polygon points="234.1912,319.1615 237.0591,344.4594 257.9778,344.4594 260.8457,319.1615" fill="#ffffff"></polygon><path d="M236.3602,338.1223l-1.2322,-10.8688c0,2.6306 6.0094,5.9415 12.6864,5.9415c7.3448,0 12.1472,-3.3109 12.1472,-6.0094l-1.2085,10.6599c0,2.7247 -5.8364,5.6634 -10.9952,5.6634c-4.674,0 -11.3978,-1.6064 -11.3978,-5.3865z" fill="#7bdbe8"></path><path d="M236.0016,319.3672c0,-3.0546 5.2096,-5.5309 11.6359,-5.5309c6.4263,0 11.6359,2.4763 11.6359,5.5309c0,3.0546 -5.2096,5.5309 -11.6359,5.5309c-6.4263,0 -11.6359,-2.4762 -11.6359,-5.5309z" fill="#a66223"></path></g></g></svg>