<svg width="500" height="500" viewBox="0 0 500 500" xmlns="http://www.w3.org/2000/svg" xmlns:xlink="http://www.w3.org/1999/xlink"><defs><clipPath id="clip-1"><rect x="0" y="0" width="500" height="500" fill="none" stroke="none" stroke-width="1" stroke-linejoin="miter"></rect></clipPath><linearGradient x1="233.4299" y1="292.2057" x2="187.3802" y2="475.6021" gradientUnits="userSpaceOnUse" id="color-1"><stop offset="0" stop-color="#f2c144"></stop><stop offset="1" stop-color="#ffffff" stop-opacity="0"></stop></linearGradient></defs><g clip-path="url(#clip-1)" id="coffeeStand" fill="none" fill-rule="nonzero" stroke="none" stroke-width="none" stroke-linecap="butt" stroke-linejoin="none" stroke-miterlimit="10" stroke-dasharray="" stroke-dashoffset="0" font-family="none" font-weight="none" font-size="none" text-anchor="none" style="mix-blend-mode: normal"><rect x="0" y="0" width="500" height="500" fill="none" stroke="none" stroke-width="1" stroke-linejoin="miter"></rect><g fill="none" stroke-linejoin="round"><path d="M153.3364,301.8935l133.4367,81.9738c6.462,3.9698 14.6133,3.9431 21.0492,-0.0689l38.458,-23.9742l-145.538,-87.2046z" stroke="#7bdbe8" stroke-width="9"></path><path d="M153.3364,301.8935l133.4367,81.9738c6.462,3.9698 14.6133,3.9431 21.0492,-0.0689l38.458,-23.9742l-145.538,-87.2046z" stroke="#ffffff" stroke-width="3"></path></g><g id="Group 1 1" fill="none" stroke-linejoin="round"><path d="M153.3364,281.5357l133.4367,81.9738c6.462,3.9698 14.6133,3.9431 21.0492,-0.0689l38.458,-23.9742l-145.538,-87.2046z" stroke="#7bdbe8" stroke-width="9"></path><path d="M153.3364,281.5357l133.4367,81.9738c6.462,3.9698 14.6133,3.9431 21.0492,-0.0689l38.458,-23.9742l-145.538,-87.2046z" stroke="#ffffff" stroke-width="3"></path></g><path d="M137.0206,216.0635v40.795l150.4142,90.7754c6.3061,3.8057 14.1936,3.8374 20.5301,0.0825l55.0146,-32.6013v-40.4923l-150.7957,-91.9625c-6.7934,-4.1429 -15.3448,-4.0905 -22.0869,0.1354z" fill="#92cc33" stroke="none" stroke-width="1" stroke-linejoin="miter"></path><path d="M211.6559,182.3383c-6.4699,-3.9457 -14.6141,-3.8957 -21.0351,0.1289l-53.6002,33.5963l150.2265,92.0281c6.4011,3.9213 14.4591,3.928 20.8667,0.0172l54.8656,-33.4861z" fill="#c4f279" stroke="none" stroke-width="1" stroke-linejoin="miter"></path><polygon points="233.3882,195.4155 166.7677,234.5326 166.7677,445.6696 249.5125,495.1701 249.8084,285.6582 318.3765,247.4778" id="Path 1 1" fill="url(#color-1)" stroke="none" stroke-width="1" stroke-linejoin="miter"></polygon><g stroke="none" stroke-width="1" stroke-linejoin="miter"><path d="M168.0534,180.1141c0,-3.82 5.9668,-6.9167 13.3272,-6.9167c7.3604,0 13.3272,3.0967 13.3272,6.9167c0,3.82 -5.9668,6.9167 -13.3272,6.9167c-7.3604,0 -13.3272,-3.0967 -13.3272,-6.9167z" fill="#ffffff"></path><path d="M170.9213,205.412c0,-2.998 4.6828,-5.4283 10.4593,-5.4283c5.7765,0 10.4593,2.4303 10.4593,5.4283c0,2.9979 -4.6828,5.4283 -10.4593,5.4283c-5.7765,0 -10.4593,-2.4303 -10.4593,-5.4283z" fill="#ffffff"></path><polygon points="168.0534,180.1141 170.9213,205.412 191.84,205.412 194.7079,180.1141" fill="#ffffff"></polygon><path d="M170.2224,199.0749l-1.2322,-10.8688c0,2.6306 6.0094,5.9415 12.6864,5.9415c7.3448,0 12.1472,-3.3109 12.1472,-6.0094l-1.2084,10.6598c0,2.7247 -5.8364,5.6634 -10.9952,5.6634c-4.674,0 -11.3978,-1.6064 -11.3978,-5.3865z" fill="#7bdbe8"></path><path d="M169.8638,180.3198c0,-3.0546 5.2096,-5.5309 11.6359,-5.5309c6.4263,0 11.6359,2.4762 11.6359,5.5309c0,3.0546 -5.2096,5.5309 -11.6359,5.5309c-6.4263,0 -11.6359,-2.4762 -11.6359,-5.5309z" fill="#a66223"></path></g><g stroke="none" stroke-width="1" stroke-linejoin="miter"><path d="M154.7262,193.9474c0,-3.82 5.9668,-6.9167 13.3272,-6.9167c7.3604,0 13.3272,3.0967 13.3272,6.9167c0,3.82 -5.9668,6.9167 -13.3272,6.9167c-7.3604,0 -13.3272,-3.0967 -13.3272,-6.9167z" fill="#ffffff"></path><path d="M157.5941,219.2453c0,-2.9979 4.6828,-5.4283 10.4594,-5.4283c5.7765,0 10.4593,2.4303 10.4593,5.4283c0,2.998 -4.6828,5.4283 -10.4593,5.4283c-5.7765,0 -10.4594,-2.4303 -10.4594,-5.4283z" fill="#ffffff"></path><polygon points="154.7262,193.9474 157.5941,219.2453 178.5128,219.2453 181.3807,193.9474" fill="#ffffff"></polygon><path d="M156.8951,212.9082l-1.2321,-10.8688c0,2.6306 6.0094,5.9415 12.6864,5.9415c7.3448,0 12.1472,-3.3109 12.1472,-6.0094l-1.2084,10.6599c0,2.7247 -5.8364,5.6634 -10.9952,5.6634c-4.674,0 -11.3978,-1.6064 -11.3978,-5.3865z" fill="#7bdbe8"></path><path d="M156.5365,194.1531c0,-3.0546 5.2096,-5.5309 11.6359,-5.5309c6.4263,0 11.6359,2.4762 11.6359,5.5309c0,3.0546 -5.2096,5.5309 -11.6359,5.5309c-6.4263,0 -11.6359,-2.4762 -11.6359,-5.5309z" fill="#a66223"></path></g><g stroke="none" stroke-width="1" stroke-linejoin="miter"><path d="M323.921,248.8282c0,-3.82 5.9668,-6.9167 13.3272,-6.9167c7.3604,0 13.3272,3.0967 13.3272,6.9167c0,3.82 -5.9668,6.9167 -13.3272,6.9167c-7.3604,0 -13.3272,-3.0967 -13.3272,-6.9167z" fill="#ffffff"></path><path d="M326.7888,274.126c0,-2.9979 4.6828,-5.4283 10.4594,-5.4283c5.7765,0 10.4593,2.4303 10.4593,5.4283c0,2.998 -4.6828,5.4283 -10.4593,5.4283c-5.7765,0 -10.4594,-2.4303 -10.4594,-5.4283z" fill="#ffffff"></path><polygon points="323.921,248.8282 326.7888,274.126 347.7075,274.126 350.5754,248.8282" fill="#ffffff"></polygon><path d="M326.0899,267.789l-1.2321,-10.8688c0,2.6306 6.0094,5.9415 12.6864,5.9415c7.3448,0 12.1472,-3.3109 12.1472,-6.0094l-1.2085,10.6599c0,2.7247 -5.8364,5.6634 -10.9952,5.6634c-4.674,0 -11.3978,-1.6064 -11.3978,-5.3865z" fill="#7bdbe8"></path><path d="M325.7313,249.0338c0,-3.0546 5.2096,-5.5309 11.6359,-5.5309c6.4263,0 11.6359,2.4763 11.6359,5.5309c0,3.0546 -5.2096,5.5309 -11.6359,5.5309c-6.4263,0 -11.6359,-2.4762 -11.6359,-5.5309z" fill="#a66223"></path></g></g></svg>