<svg width="500" height="500" viewBox="0 0 500 500" xmlns="http://www.w3.org/2000/svg" xmlns:xlink="http://www.w3.org/1999/xlink"><defs><clipPath id="clip-1"><rect x="0" y="0" width="500" height="500" fill="none" stroke="none" stroke-width="1" stroke-linejoin="miter"></rect></clipPath><linearGradient x1="121.0518" y1="136.613" x2="121.2639" y2="182.929" gradientUnits="userSpaceOnUse" id="color-1"><stop offset="0" stop-color="#ffffff" stop-opacity="0"></stop><stop offset="1" stop-color="#7bdbe8"></stop></linearGradient><linearGradient x1="281.7654" y1="232.5827" x2="281.9775" y2="278.8987" gradientUnits="userSpaceOnUse" id="color-2"><stop offset="0" stop-color="#ffffff" stop-opacity="0"></stop><stop offset="1" stop-color="#7bdbe8"></stop></linearGradient><linearGradient x1="394.0563" y1="161.4554" x2="394.2683" y2="207.7714" gradientUnits="userSpaceOnUse" id="color-3"><stop offset="0" stop-color="#ffffff" stop-opacity="0"></stop><stop offset="1" stop-color="#7bdbe8"></stop></linearGradient></defs><g clip-path="url(#clip-1)" id="coffeeShop_top" fill="none" fill-rule="nonzero" stroke="none" stroke-width="none" stroke-linecap="round" stroke-linejoin="none" stroke-miterlimit="10" stroke-dasharray="" stroke-dashoffset="0" font-family="none" font-weight="none" font-size="none" text-anchor="none" style="mix-blend-mode: normal"><rect x="0" y="0" width="500" height="500" fill="none" stroke="none" stroke-width="1" stroke-linejoin="miter"></rect><path d="M116.4988,222.8807c0,-0.1628 0.0879,-82.1093 0.1047,-82.2677c0.2403,-2.26 2.0727,-4 4.3953,-4c2.3277,0 4.3712,1.7328 4.6047,4c0.0158,0.1535 -0.1047,82.11 -0.1047,82.2677c0,2.4866 -2.0147,4.5023 -4.5,4.5023c-2.4853,0 -4.5,-2.0158 -4.5,-4.5023z" fill="url(#color-1)" stroke="none" stroke-width="1" stroke-linejoin="miter"></path><path d="M277.2124,318.8504c0,-0.1628 0.0879,-82.1093 0.1047,-82.2677c0.2403,-2.26 2.0727,-4 4.3953,-4c2.3277,0 4.3712,1.7328 4.6047,4c0.0158,0.1535 -0.1047,82.11 -0.1047,82.2677c0,2.4866 -2.0147,4.5023 -4.5,4.5023c-2.4853,0 -4.5,-2.0158 -4.5,-4.5023z" fill="url(#color-2)" stroke="none" stroke-width="1" stroke-linejoin="miter"></path><path d="M389.5032,247.7231c0,-0.1628 0.0879,-82.1093 0.1047,-82.2677c0.2403,-2.26 2.0727,-4 4.3953,-4c2.3277,0 4.3712,1.7328 4.6047,4c0.0158,0.1535 -0.1047,82.11 -0.1047,82.2677c0,2.4866 -2.0147,4.5023 -4.5,4.5023c-2.4853,0 -4.5,-2.0158 -4.5,-4.5023z" fill="url(#color-3)" stroke="none" stroke-width="1" stroke-linejoin="miter"></path><path d="M87.8071,115.7932l182.9365,109.2384c6.24,3.7261 14.0102,3.7739 20.2956,0.1248l134.4353,-78.05l-188.045,-108.7228c-6.2815,-3.6318 -14.0374,-3.5767 -20.2666,0.1441z" fill-opacity="0.3" fill="#33d3e8" stroke="#7bdbe8" stroke-width="9" stroke-linejoin="round"></path><path d="M87.8071,115.7932l182.9365,109.2384c6.24,3.7261 14.0102,3.7739 20.2956,0.1248l134.4353,-78.05l-188.045,-108.7228c-6.2815,-3.6318 -14.0374,-3.5767 -20.2666,0.1441z" fill="none" stroke="#ffffff" stroke-width="3" stroke-linejoin="round"></path><path d="M87.8071,94.3176l182.9365,109.2383c6.24,3.7261 14.0102,3.7739 20.2956,0.1248l134.4353,-78.05l-188.045,-108.7228c-6.2815,-3.6318 -14.0374,-3.5767 -20.2666,0.1441z" fill="none" stroke="#7bdbe8" stroke-width="9" stroke-linejoin="round"></path><path d="M87.8071,94.3176l182.9365,109.2383c6.24,3.7261 14.0102,3.7739 20.2956,0.1248l134.4353,-78.05l-188.045,-108.7228c-6.2815,-3.6318 -14.0374,-3.5767 -20.2666,0.1441z" fill="none" stroke="#ffffff" stroke-width="3" stroke-linejoin="round"></path><path d="" fill="none" stroke="#000000" stroke-width="1" stroke-linejoin="miter"></path></g></svg>