<svg width="30" height="40" viewBox="0 0 30 40" xmlns="http://www.w3.org/2000/svg" xmlns:xlink="http://www.w3.org/1999/xlink"><defs><clipPath id="clip-1"><rect x="0" y="0" width="30" height="40" fill="none" stroke-width="5"></rect></clipPath></defs><g clip-path="url(#clip-1)" id="coffee" fill="none" fill-rule="nonzero" stroke="none" stroke-width="none" stroke-linecap="round" stroke-linejoin="miter" stroke-miterlimit="10" stroke-dasharray="" stroke-dashoffset="0" font-family="none" font-weight="none" font-size="none" text-anchor="none" style="mix-blend-mode: normal"><rect x="0" y="0" width="30" height="40" fill="none" stroke-width="5"></rect><g stroke-width="1"><path d="M1.6728,8.0953c0,-3.82 5.9668,-6.9167 13.3272,-6.9167c7.3604,0 13.3272,3.0967 13.3272,6.9167c0,3.82 -5.9668,6.9167 -13.3272,6.9167c-7.3604,0 -13.3272,-3.0967 -13.3272,-6.9167z" fill="#ffffff"></path><path d="M4.5406,33.3931c0,-2.9979 4.6828,-5.4283 10.4593,-5.4283c5.7765,0 10.4593,2.4303 10.4593,5.4283c0,2.998 -4.6828,5.4283 -10.4593,5.4283c-5.7765,0 -10.4593,-2.4303 -10.4593,-5.4283z" fill="#ffffff"></path><polygon points="1.6728,8.0953 4.5406,33.3931 25.4593,33.3931 28.3272,8.0953" fill="#ffffff"></polygon><path d="M3.8417,27.0561l-1.2322,-10.8688c0,2.6306 6.0094,5.9415 12.6864,5.9415c7.3448,0 12.1472,-3.3109 12.1472,-6.0094l-1.2084,10.6599c0,2.7247 -5.8364,5.6634 -10.9952,5.6634c-4.674,0 -11.3978,-1.6064 -11.3978,-5.3865z" fill="#7bdbe8"></path><path d="M3.4831,8.3009c0,-3.0546 5.2096,-5.5309 11.6359,-5.5309c6.4263,0 11.6359,2.4762 11.6359,5.5309c0,3.0546 -5.2096,5.5309 -11.6359,5.5309c-6.4263,0 -11.6359,-2.4762 -11.6359,-5.5309z" fill="#a66223"></path></g></g></svg>