<svg width="60" height="60" viewBox="0 0 60 60" xmlns="http://www.w3.org/2000/svg" xmlns:xlink="http://www.w3.org/1999/xlink"><defs><clipPath id="clip-1"><rect x="0" y="0" width="60" height="60" fill-opacity="0" fill="#000000" stroke="none" stroke-width="1"></rect></clipPath><linearGradient x1="37.7178" y1="-2.4616" x2="61.8639" y2="68.6904" gradientUnits="userSpaceOnUse" id="color-1"><stop offset="0" stop-color="#000000"></stop><stop offset="1" stop-color="#4cd649"></stop></linearGradient></defs><g clip-path="url(#clip-1)" id="plus" fill="none" fill-rule="nonzero" stroke="none" stroke-width="none" stroke-linecap="butt" stroke-linejoin="miter" stroke-miterlimit="10" stroke-dasharray="" stroke-dashoffset="0" font-family="none" font-weight="none" font-size="none" text-anchor="none" style="mix-blend-mode: normal"><rect x="0" y="0" width="60" height="60" fill-opacity="0" fill="#000000" stroke="none" stroke-width="1"></rect><path d="M13.2717,35.8017c-0.9502,0 -1.7205,-0.7703 -1.7205,-1.7205v-8.1624c0,-0.9502 0.7703,-1.7205 1.7205,-1.7205h8.8583c0.9502,0 1.7205,-0.7703 1.7205,-1.7205v-8.1624c0,-0.9502 0.7703,-1.7205 1.7205,-1.7205h8.8583c0.9502,0 1.7205,0.7703 1.7205,1.7205v8.1624c0,0.9502 0.7703,1.7205 1.7205,1.7205h8.8583c0.9502,0 1.7205,0.7703 1.7205,1.7205v8.1624c0,0.9502 -0.7703,1.7205 -1.7205,1.7205h-8.8583c-0.9502,0 -1.7205,0.7703 -1.7205,1.7205v8.1624c0,0.9502 -0.7703,1.7205 -1.7205,1.7205h-8.8583c-0.9502,0 -1.7205,-0.7703 -1.7205,-1.7205v-8.1624c0,-0.9502 -0.7703,-1.7205 -1.7205,-1.7205z" data-paper-data="{&quot;strokeAlign&quot;:&quot;outer&quot;}" fill="url(#color-1)" stroke="#ffffff" stroke-width="5"></path></g></svg>