<svg width="60" height="60" viewBox="0 0 60 60" xmlns="http://www.w3.org/2000/svg" xmlns:xlink="http://www.w3.org/1999/xlink"><defs><clipPath id="clip-1"><rect x="0" y="0" width="60" height="60" fill-opacity="0" fill="#000000" stroke="none" stroke-width="1"></rect></clipPath><linearGradient x1="19.1087" y1="14.631" x2="42.8318" y2="51.4961" gradientUnits="userSpaceOnUse" id="color-1"><stop offset="0" stop-color="#000000"></stop><stop offset="1" stop-color="#f2c144"></stop></linearGradient></defs><g clip-path="url(#clip-1)" id="star" fill="none" fill-rule="nonzero" stroke="none" stroke-width="none" stroke-linecap="butt" stroke-linejoin="miter" stroke-miterlimit="10" stroke-dasharray="" stroke-dashoffset="0" font-family="none" font-weight="none" font-size="none" text-anchor="none" style="mix-blend-mode: normal"><rect x="0" y="0" width="60" height="60" fill-opacity="0" fill="#000000" stroke="none" stroke-width="1"></rect><path d="M40.0626,34.8383c-0.3507,0.2544 -0.4977,0.7056 -0.3642,1.1177l4.6732,14.4233c0.2986,0.9216 -0.7565,1.6868 -1.5398,1.1168l-12.2585,-8.9219c-0.3503,-0.2549 -0.8249,-0.2553 -1.1756,-0.001l-12.2733,8.9015c-0.7842,0.5688 -1.838,-0.1982 -1.5379,-1.1193l4.6971,-14.4155c0.1342,-0.4119 -0.0121,-0.8634 -0.3623,-1.1183l-12.2585,-8.9219c-0.7832,-0.5701 -0.3794,-1.8093 0.5893,-1.8085l15.1614,0.0126c0.4332,0.0004 0.8174,-0.2783 0.9516,-0.6902l4.6971,-14.4155c0.3001,-0.9211 1.6035,-0.92 1.9021,0.0016l4.6732,14.4233c0.1335,0.4121 0.5173,0.6914 0.9505,0.6918l15.1614,0.0126c0.9687,0.0008 1.3705,1.2408 0.5863,1.8095z" data-paper-data="{&quot;strokeAlign&quot;:&quot;outer&quot;}" fill="url(#color-1)" stroke="#ffffff" stroke-width="5"></path></g></svg>